<?xml version="1.0" standalone="no"?>
<!DOCTYPE svg PUBLIC "-//W3C//DTD SVG 20010904//EN"
 "http://www.w3.org/TR/2001/REC-SVG-20010904/DTD/svg10.dtd">
<svg version="1.0" xmlns="http://www.w3.org/2000/svg"
 width="274.000000pt" height="248.000000pt" viewBox="0 0 274.000000 248.000000"
 preserveAspectRatio="xMidYMid meet">

<g transform="translate(0.000000,248.000000) scale(0.100000,-0.100000)"
fill="#000000" stroke="none">
<path d="M1804 2068 c-194 -194 -360 -369 -370 -388 -16 -29 -19 -54 -17 -143
3 -119 -2 -137 -53 -180 -38 -32 -49 -59 -35 -85 21 -38 50 -34 103 16 75 70
83 89 84 217 0 61 1 117 2 125 1 8 160 172 352 365 242 243 350 358 350 372 0
21 -33 53 -55 53 -5 0 -168 -159 -361 -352z"/>
<path d="M225 2274 c-133 -49 -175 -208 -107 -410 70 -207 201 -374 360 -457
72 -38 141 -58 267 -77 101 -15 122 -27 181 -95 50 -58 79 -68 108 -39 24 24
20 38 -33 99 -69 82 -117 111 -204 125 -208 32 -281 61 -377 148 -116 104
-207 265 -231 408 -27 155 33 231 174 218 182 -17 421 -173 504 -329 38 -72
49 -112 63 -229 6 -49 18 -105 26 -125 8 -19 50 -72 93 -116 86 -88 105 -128
91 -191 -5 -21 -17 -48 -27 -60 -10 -13 -157 -146 -328 -296 -170 -149 -351
-313 -401 -362 -81 -81 -93 -97 -104 -144 -49 -209 185 -363 357 -236 31 23
213 225 476 527 126 145 144 176 115 205 -29 29 -56 13 -145 -90 -235 -270
-394 -450 -458 -516 -70 -72 -71 -72 -124 -72 -47 0 -57 4 -86 33 -39 39 -50
72 -41 121 9 48 58 94 634 601 209 183 232 215 232 319 -1 85 -25 132 -120
231 -44 46 -80 86 -80 89 0 42 -36 241 -51 281 -73 195 -293 379 -525 439 -76
20 -185 20 -239 0z"/>
<path d="M2017 2013 c-142 -142 -264 -269 -272 -283 -19 -36 -3 -70 32 -70 23
0 73 45 296 268 218 218 267 272 267 294 0 27 -23 48 -51 48 -7 0 -130 -116
-272 -257z"/>
<path d="M2141 1856 c-246 -246 -273 -276 -267 -299 6 -27 35 -42 64 -33 9 3
135 124 280 269 268 268 285 290 250 325 -30 30 -56 9 -327 -262z"/>
<path d="M2220 1656 c-387 -385 -368 -371 -494 -353 -77 11 -129 0 -179 -36
-60 -44 -206 -219 -222 -265 -18 -54 -19 -126 -4 -173 17 -50 51 -91 350 -420
183 -202 285 -307 313 -322 52 -27 156 -30 202 -4 80 42 126 118 126 207 0
109 -16 127 -423 476 -300 258 -291 252 -324 230 -25 -16 -32 -41 -17 -62 4
-6 120 -107 257 -225 335 -287 404 -354 412 -400 15 -98 -86 -176 -180 -140
-29 11 -586 621 -611 668 -22 43 -21 120 3 158 10 17 59 72 109 123 l90 93
105 -7 c167 -11 156 -18 559 384 270 268 338 342 338 362 0 31 -17 50 -44 50
-14 0 -139 -118 -366 -344z"/>
</g>
</svg>
